<svg version="1.2" xmlns="http://www.w3.org/2000/svg"
  viewBox="48.99999999999986 148 1540.0000000000002 329.00000000000006" width="1541" height="330">
  <style>
    .a {
      fill: #101727;
    }

    .b {
      fill: #24d6ff;
    }

    .c {
      fill: #00e5ff;
    }

    html.dark .a {
      fill: #fff;
    }
  </style>
  <path class="a"
    d="m1390 345h8.5v-84.5h-8.5v38h-45.8v-38h-8.5v84.5h8.5v-39.5h45.8zm99.8-84.7h-44.2v84.7h44.2v-7h-35.7v-32.1h32v-7h-32v-31.5h35.7zm52.9 41.3v-34.1h17.1c14.2 0 19.8 6.3 19.8 17.2 0 10.4-5.6 16.9-19.8 16.9zm45.5-16.9c0-13.9-8.9-24.3-28.5-24.3h-25.5v84.5h8.5v-36h17c19.8 0 28.5-10.6 28.5-24.2z" />
  <path class="b"
    d="m1239.5 350c-24.6 0-44.4-19.9-44.4-44.5 0-24.6 19.8-44.5 44.4-44.5 24.7 0 44.5 19.9 44.5 44.5 0 24.6-19.8 44.5-44.5 44.5z" />
  <path class="b"
    d="m1200.4 433.2c-15.5 0-28-12.6-28-28.1 0-15.5 12.5-28 28-28 15.5 0 28 12.5 28 28 0 15.5-12.5 28.1-28 28.1z" />
  <path class="b"
    d="m1196.9 241c-15.5 0-28.1-12.5-28.1-28 0-15.5 12.6-28 28.1-28 15.5 0 28 12.5 28 28 0 15.5-12.5 28-28 28z" />
  <path class="b"
    d="m1135.8 182.6c-9.3 0-16.8-7.5-16.8-16.8 0-9.3 7.5-16.8 16.8-16.8 9.3 0 16.8 7.5 16.8 16.8 0 9.3-7.5 16.8-16.8 16.8z" />
  <path class="b"
    d="m1136.4 476.9c-9.3 0-16.8-7.5-16.8-16.8 0-9.2 7.5-16.8 16.8-16.8 9.2 0 16.8 7.6 16.8 16.8 0 9.3-7.6 16.8-16.8 16.8z" />
  <path class="a"
    d="m362.9 367.4q4.9 10.2 13.6 16.2 8.6 6.1 20.5 8.7 11.8 2.6 25.2 2.6 7.7 0 16.8-2.2 9.1-2.2 16.9-7 7.9-4.8 13.1-12.4 5.2-7.6 5.2-18.3 0-8.2-3.7-14.3-3.7-6-9.6-10.1-5.9-4.2-13.1-6.8-7.1-2.6-14-4.2l-43.7-10.8q-8.5-2.2-16.6-5.5-8.2-3.3-14.2-8.8-6.1-5.5-9.8-13.4-3.7-8-3.7-19.5 0-7.2 2.8-16.8 2.7-9.6 10.3-18.2 7.5-8.5 20.7-14.4 13.2-5.9 33.9-5.9 14.5 0 27.7 3.8 13.2 3.9 23.1 11.6 9.9 7.7 15.8 19.1 5.9 11.4 5.9 26.5h-18.7q-0.5-11.2-5.1-19.6-4.5-8.4-11.8-14-7.3-5.7-16.7-8.6-9.5-2.9-20-2.9-9.6 0-18.5 2.1-9 2.1-15.7 6.6-6.7 4.5-10.9 12-4.1 7.4-4.1 18.4 0 6.9 2.4 11.9 2.3 5.1 6.4 8.7 4.1 3.6 9.5 5.8 5.4 2.2 11.4 3.5l47.8 11.9q10.5 2.7 19.7 6.7 9.2 4 16.2 9.9 7 5.9 11 14.4 4 8.6 4 20.6 0 3.3-0.7 8.8-0.7 5.5-3.3 11.7-2.6 6.2-7.4 12.5-4.8 6.4-13.2 11.4-8.4 5.1-20.8 8.3-12.3 3.2-29.6 3.2-17.4 0-32.2-4-14.9-4-25.3-12.3-10.5-8.2-16.1-21.1-5.6-13-4.8-31.1h18.7q-0.3 15.1 4.7 25.3z" />
  <path class="a"
    d="m609.7 210.4q13.2 0 24 3.7 10.7 3.7 18.4 11 7.7 7.3 11.8 17.8 4.1 10.4 4.1 23.6 0 13.2-4.1 23.6-4.1 10.5-11.8 17.8-7.7 7.3-18.4 11-10.8 3.7-24 3.7h-68.4v84.1h-18.7v-196.3zm-4.1 96.2q19.5 0 31.6-9.9 12.1-9.9 12.1-30.2 0-20.3-12.1-30.2-12.1-9.9-31.6-9.9h-64.4v80.2z" />
  <path class="a" d="m715.8 210.4v196.3h-18.6v-196.3z" />
  <path class="a"
    d="m846.7 210.4q12.1 0 23 3 10.8 3.1 18.9 9.3 8.1 6.1 12.9 15.9 4.9 9.8 4.9 23 0 18.7-9.7 32.4-9.6 13.7-28.6 17.6v0.5q9.7 1.4 16 5.1 6.3 3.7 10.3 9.5 4 5.8 5.8 13.3 1.8 7.6 2.3 16.4 0.3 4.9 0.6 12.1 0.2 7.1 1.1 14.4 0.8 7.3 2.6 13.8 1.8 6.4 4.8 10h-20.6q-1.7-2.7-2.7-6.7-0.9-4-1.3-8.3-0.4-4.2-0.7-8.4-0.3-4.1-0.6-7.1-0.5-10.5-1.7-20.8-1.3-10.3-5.3-18.4-4-8.1-11.5-13-7.6-5-20.8-4.4h-70.9v87.1h-18.7v-196.3zm-1.4 93.2q8.5 0 16.2-2.6 7.7-2.6 13.5-7.6 5.8-4.9 9.2-11.9 3.5-7 3.5-16.1 0-18.1-10.5-28.6-10.4-10.4-31.9-10.4h-69.8v77.2z" />
  <path class="a" d="m1075.7 210.4v16h-116.8v70.9h109.4v15.9h-109.4v77.6h118.2v15.9h-136.9v-196.3z" />
  <path class="c"
    d="m72.8 250.7c-12.6 0-22.8-10.2-22.8-22.8 0-12.6 10.2-22.8 22.8-22.8 12.6 0 22.8 10.2 22.8 22.8 0 12.6-10.2 22.8-22.8 22.8z" />
  <path class="a" d="m94.2 269.6h-41.3v137.3h41.3v-137.3l0.1 0.2v-0.1z" />
  <path class="a" d="m170.5 211.3l81.9 131.6h0.6v-131.6h40.4v196.2h-43.2l-81.6-131.4h-0.6v131.4h-40.4v-196.2z" />
</svg>