<svg version="1.2" xmlns="http://www.w3.org/2000/svg" viewBox="50.99999999999998 205 247.00000000000014 205" width="249"
  height="205">
  <style>
    .text {
      fill: #101727;
    }

    html.dark {
      .text {
        fill: #ffffff;
      }
    }

    .accent {
      fill: #24d6ff;
    }

    .accent-2 {
      fill: #00e5ff;
    }
  </style>
  <path class="text" d="m97.2 270.6h-41.3v137.3h41.3v-137.3l0.1 0.2v-0.1z" />
  <path class="text" d="m173.5 212.3l81.9 131.6h0.6v-131.6h40.4v196.2h-43.2l-81.6-131.4h-0.6v131.4h-40.4v-196.2z" />
  <path class="accent"
    d="m1242.5 351c-24.6 0-44.4-19.9-44.4-44.5 0-24.6 19.8-44.5 44.4-44.5 24.7 0 44.5 19.9 44.5 44.5 0 24.6-19.8 44.5-44.5 44.5z" />
  <path class="accent-2"
    d="m75.8 251.7c-12.6 0-22.8-10.2-22.8-22.8 0-12.6 10.2-22.8 22.8-22.8 12.6 0 22.8 10.2 22.8 22.8 0 12.6-10.2 22.8-22.8 22.8z" />
</svg>